<svg width="647" height="97" viewBox="0 0 647 97" fill="none" xmlns="http://www.w3.org/2000/svg">
<path d="M647 97H0L119.23 69.0959V52.4863L149.038 42.5205L241.091 69.0959L224.434 35.2123L250.734 9.96574L268.268 59.7945L394.512 79.0616L440.1 59.7945L422.566 87.6986L647 97Z" fill="#D4E3EB"/>
<path d="M172.708 25.9109L149.038 42.5205L241.09 69.0959L224.433 35.2123L172.708 25.9109Z" fill="#F2F1F2"/>
<path d="M344.54 0L250.734 9.96575L267.391 59.7945L394.512 79.0616L439.223 60.4589L422.566 87.6986L646.999 97L583.001 88.363L563.714 63.7808L538.289 57.137C529.522 62.2306 512.164 72.0192 512.865 70.4247C513.567 68.8301 497.377 52.0434 489.195 43.8493C466.108 38.3128 419.936 26.8411 419.936 25.2466C419.936 23.2534 383.115 40.5274 384.868 39.1986C386.271 38.1356 358.567 12.6233 344.54 0Z" fill="#F1F1F2"/>
</svg>
