<svg width="369" height="73" viewBox="0 0 369 73" fill="none" xmlns="http://www.w3.org/2000/svg">
<path d="M369 73H0L68 52V39.5L85 32L137.5 52L128 26.5L143 7.5L153 45L225 59.5L251 45L241 66L369 73Z" fill="#D4E3EB"/>
<path d="M98.5 19.5L85 32L137.5 52L128 26.5L98.5 19.5Z" fill="#F2F1F2"/>
<path d="M196.5 0L143 7.5L152.5 45L225 59.5L250.5 45.5L241 66L369 73L332.5 66.5L321.5 48L307 43C302 46.8333 292.1 54.2 292.5 53C292.9 51.8 283.667 39.1667 279 33C265.833 28.8333 239.5 20.2 239.5 19C239.5 17.5 218.5 30.5 219.5 29.5C220.3 28.7 204.5 9.5 196.5 0Z" fill="#F1F1F2"/>
</svg>
