<svg width="556" height="150" viewBox="0 0 556 150" fill="none" xmlns="http://www.w3.org/2000/svg">
<path d="M556 143.384C374.397 145.274 8.95195 149.244 0 150L192.327 129.205L181.836 93.2877L220.302 118.808L324.508 84.7808L336.397 12L358.777 51.6986L348.287 93.2877L430.813 60.2055L450.395 75.3288L453.892 93.2877L556 143.384Z" fill="#D1E3EB"/>
<path d="M57.2807 127.372L0 150C61.4719 143.4 192.798 132.086 192.1 129.257C191.401 126.429 184.881 104.743 181.622 93.4292L220.74 119.829L324.125 88.7149L336 12.3445C311.318 8.88739 261.954 2.35036 259.16 0.0875246C256.366 -2.17531 234.711 40.0013 224.233 61.3725L190.004 40.6299C174.17 48.1727 141.525 62.8811 137.613 61.3725C133.701 59.8639 122.944 88.4008 118.054 102.858L95.7006 88.7149C90.578 88.0864 79.0753 87.2064 74.0457 88.7149C69.0162 90.2235 60.7734 115.115 57.2807 127.372Z" fill="#F1F2F1"/>
</svg>
