<svg width="781" height="247" viewBox="0 0 781 247" fill="none" xmlns="http://www.w3.org/2000/svg">
<path d="M781 236.105C525.906 239.218 12.5746 245.755 0 247L270.157 212.758L255.421 153.614L309.453 195.638L455.829 139.606L472.53 19.76L503.966 85.1304L489.23 153.614L605.152 99.1384L632.659 124.041L637.571 153.614L781 236.105Z" fill="#D1E3EB"/>
<path d="M80.4608 209.739L0 247C86.3482 236.132 270.819 217.501 269.838 212.844C268.857 208.186 259.699 172.477 255.12 153.847L310.068 197.318L455.29 146.084L471.971 20.3272C437.301 14.6346 367.961 3.87025 364.036 0.144124C360.111 -3.582 329.693 65.8689 314.975 101.06L266.894 66.9039C244.653 79.3243 198.797 103.544 193.302 101.06C187.807 98.576 172.696 145.567 165.828 169.372L134.428 146.084C127.233 145.049 111.075 143.6 104.01 146.084C96.9454 148.568 85.3669 189.555 80.4608 209.739Z" fill="#F1F2F1"/>
</svg>
