<svg width="3070" height="1044" viewBox="0 0 3070 1044" fill="none" xmlns="http://www.w3.org/2000/svg">
<g filter="url(#filter0_d_32_7)">
<path d="M2099.4 315.807L2635.62 195.5L2967.14 277.4L2012.86 678.08L997.113 665.5L309.132 525.49L103.571 217.195L105.714 130L364.777 284L1207.14 441.409H1767.14L2099.4 315.807Z" fill="#A5D261"/>
<path d="M2768.57 585.695H2965.71V276.362L2722.86 332.416L2020.71 667.7L998.572 525.49L339.99 437.5L103.572 216.156V525.49L1161.43 870.116H1952.14L2768.57 585.695Z" fill="#85B74D"/>
<path d="M100 973.919H2957.14L2970 482.93H2770.71L1958.57 766.313C1687.86 770.465 1131.36 630.965 1129.65 621C1127.94 611.035 447.381 532.41 100 421.687V973.919Z" fill="#66973E"/>
</g>
<path d="M908.595 190L891.001 233.933L921.79 282L908.595 190Z" fill="#74AE52"/>
<path d="M920.716 280.147L955 323.667L933.754 245.435L908.645 190L920.716 280.147Z" fill="#95D45E"/>
<path d="M887.247 400.667H904.736H908.622L938.741 384.103L878.018 326.131L891.134 233.997L908.622 190L879.961 229.338L847.413 318.367L853.728 381.515L887.247 400.667Z" fill="#558244"/>
<path d="M859.647 470.667L893.077 456.148L878.542 448.889L845.112 438H760.81L708 480L859.647 470.667Z" fill="#6B9846"/>
<path d="M906.223 453.743L893.077 456.333L895.025 420.072L906.223 418V453.743Z" fill="#906C41"/>
<path d="M878.547 449.049L893.041 456.333L895.457 420.431L906.085 417.829L906.568 392.854L887.244 392.333L878.547 449.049Z" fill="#78683E"/>
<path d="M920.821 280.137C927.117 313.141 938.741 381.845 938.741 384.333L878.202 326.274L891.278 234L920.821 280.137Z" fill="#619647"/>
<path d="M920.752 280L938.599 384.333L955 323.602L920.752 280Z" fill="#86C15F"/>
<path d="M1984.39 138.252L1942.36 233.577L1996.9 190.922L2007.4 142.332L2017.91 93L1984.39 138.252Z" fill="#9ED966"/>
<path d="M1997.1 190.123L1963.48 298.496L2054.79 239.113L2045.76 143.36L1997.1 190.123Z" fill="#64974C"/>
<path d="M2045.48 143.423L1997.5 190.139L2017.99 93L2045.48 143.423Z" fill="#76B14B"/>
<path d="M2091.23 299.922L2029.51 317.351L2009.94 316.238L1962.77 298.438L2054.6 239.106L2045.57 143.433L2017.97 93L2063.63 140.466L2105.28 234.656L2091.23 299.922Z" fill="#5C8644"/>
<path d="M2018.98 388.219L2028.01 376.716L2049.58 367.81L2122.82 354.822L2189.04 364.841L2216.62 380.798L2239.2 409L2114.29 405.289L2046.57 398.61L2018.98 388.219Z" fill="#689746"/>
<path d="M2050.14 367.859L2028.12 376.779L2025.62 338.866L2011.61 331.804L2011.11 308.758H2041.63L2050.14 367.859Z" fill="#6B4034"/>
<path d="M2027.94 376.706L2023.44 378.928L2008.96 374.115L2011.46 331.909L2025.44 338.944L2027.94 376.706Z" fill="#8A5E3D"/>
<path d="M1942 233.556L1963.5 298.496L1997.5 190.139L1942 233.556Z" fill="#79B64F"/>
<defs>
<filter id="filter0_d_32_7" x="0" y="0" width="3070" height="1043.92" filterUnits="userSpaceOnUse" color-interpolation-filters="sRGB">
<feFlood flood-opacity="0" result="BackgroundImageFix"/>
<feColorMatrix in="SourceAlpha" type="matrix" values="0 0 0 0 0 0 0 0 0 0 0 0 0 0 0 0 0 0 127 0" result="hardAlpha"/>
<feOffset dy="-30"/>
<feGaussianBlur stdDeviation="50"/>
<feComposite in2="hardAlpha" operator="out"/>
<feColorMatrix type="matrix" values="0 0 0 0 0 0 0 0 0 0 0 0 0 0 0 0 0 0 0.3 0"/>
<feBlend mode="normal" in2="BackgroundImageFix" result="effect1_dropShadow_32_7"/>
<feBlend mode="normal" in="SourceGraphic" in2="effect1_dropShadow_32_7" result="shape"/>
</filter>
</defs>
</svg>
