<svg width="2563" height="803" viewBox="0 0 2563 803" fill="none" xmlns="http://www.w3.org/2000/svg">
<path d="M774.856 296.31L301.652 176.798L2.55078 140.253L854.574 521.506L1760.17 376.314C1944.48 290.384 2321.38 105.684 2321.38 105.684L2559.26 82.9668L2557.35 0L2263.98 58.2743L1573.95 296.31H1073.96H774.856Z" fill="#ADDC67"/>
<path d="M179.843 433.6H3.82666V139.266L220.659 192.601L847.559 511.629L1760.17 376.314L2321.38 105.684L2559.26 81.9791V376.314L1614.76 704.23H908.783L179.843 433.6Z" fill="#93C857"/>
<path d="M2562.45 803H11.4794L0 335.818H177.93L903.043 605.46C1144.75 609.411 1628.54 614.942 1630.07 605.46C1631.6 595.978 2252.29 382.898 2562.45 277.544V803Z" fill="#76A94D"/>
<path d="M1182.92 445L1131.7 497.719L1221.33 555.4L1182.92 445Z" fill="#74AE52"/>
<path d="M1218.2 553.177L1318 605.4L1256.15 511.522L1183.06 445L1218.2 553.177Z" fill="#95D45E"/>
<path d="M1120.78 697.8H1171.68H1183L1270.67 677.924L1093.91 608.357L1132.09 497.796L1183 445L1099.57 492.206L1004.82 599.04L1023.2 674.818L1120.78 697.8Z" fill="#558244"/>
<path d="M1040.43 781.8L1137.75 764.378L1095.44 755.667L998.123 742.6H752.726L599 793L1040.43 781.8Z" fill="#6B9846"/>
<path d="M1176.01 761.492L1137.75 764.6L1143.42 721.086L1176.01 718.6V761.492Z" fill="#906C41"/>
<path d="M1095.45 755.858L1137.64 764.6L1144.67 721.517L1175.61 718.395L1177.02 688.424L1120.77 687.8L1095.45 755.858Z" fill="#78683E"/>
<path d="M1218.51 553.164C1236.83 592.769 1270.67 675.214 1270.67 678.2L1094.44 608.528L1132.51 497.8L1218.51 553.164Z" fill="#619647"/>
<path d="M1218.31 553L1270.26 678.2L1318 605.322L1218.31 553Z" fill="#86C15F"/>
<path d="M1863.39 102.252L1821.36 197.577L1875.9 154.922L1886.4 106.332L1896.91 57L1863.39 102.252Z" fill="#9ED966"/>
<path d="M1876.1 154.123L1842.48 262.496L1933.79 203.113L1924.76 107.36L1876.1 154.123Z" fill="#64974C"/>
<path d="M1924.48 107.423L1876.5 154.139L1896.99 57L1924.48 107.423Z" fill="#76B14B"/>
<path d="M1970.23 263.922L1908.51 281.351L1888.94 280.238L1841.77 262.438L1933.6 203.106L1924.57 107.433L1896.97 57L1942.63 104.466L1984.28 198.656L1970.23 263.922Z" fill="#5C8644"/>
<path d="M1897.98 352.219L1907.01 340.716L1928.58 331.81L2001.82 318.822L2068.04 328.841L2095.62 344.798L2118.2 373L1993.29 369.289L1925.57 362.61L1897.98 352.219Z" fill="#689746"/>
<path d="M1929.14 331.859L1907.12 340.779L1904.62 302.866L1890.61 295.804L1890.11 272.758H1920.63L1929.14 331.859Z" fill="#6B4034"/>
<path d="M1906.94 340.706L1902.44 342.928L1887.96 338.115L1890.46 295.909L1904.44 302.944L1906.94 340.706Z" fill="#8A5E3D"/>
<path d="M1821 197.556L1842.5 262.496L1876.5 154.139L1821 197.556Z" fill="#79B64F"/>
</svg>
