<svg width="1900" height="1879" viewBox="0 0 1900 1879" fill="none" xmlns="http://www.w3.org/2000/svg">
<path d="M270.881 269.055L2.28711 835.834L350.82 582.217L417.969 293.314L485.117 0L270.881 269.055Z" fill="#9ED966"/>
<path d="M352.109 577.468L137.299 1221.82L720.814 868.752L663.104 299.425L352.109 577.468Z" fill="#64974C"/>
<path d="M661.319 299.804L354.687 577.563L485.644 0L661.319 299.804Z" fill="#76B14B"/>
<path d="M953.671 1230.3L559.23 1333.93L434.164 1327.31L132.721 1221.48L719.572 868.708L661.849 299.858L485.473 0L777.295 282.22L1043.46 842.25L953.671 1230.3Z" fill="#5C8644"/>
<path d="M491.983 1755.3L549.685 1686.9L687.531 1633.95L1155.56 1556.72L1578.71 1616.3L1755.03 1711.17L1899.28 1878.85L1101.07 1856.79L668.296 1817.08L491.983 1755.3Z" fill="#689746"/>
<path d="M691.066 1634.24L550.365 1687.28L534.376 1461.85L444.839 1419.86L441.642 1282.84H636.704L691.066 1634.24Z" fill="#6B4034"/>
<path d="M549.191 1686.84L520.467 1700.05L427.911 1671.43L443.869 1420.49L533.233 1462.32L549.191 1686.84Z" fill="#8A5E3D"/>
<path d="M0 835.708L137.401 1221.82L354.686 577.563L0 835.708Z" fill="#79B64F"/>
</svg>
