<svg width="2505" height="640" viewBox="0 0 2505 640" fill="none" xmlns="http://www.w3.org/2000/svg">
<path d="M6.00462 303C112.171 272.833 295.1 76.7 299.5 75.5L384.504 400.5L719.004 583.5L1144.5 471.5L1780.5 583.5L2210 459L2225 0L2505 272L2486 639C1656 639.5 -3.19538 640.2 0.00462205 639C3.20462 637.8 5.33796 414.5 6.00462 303Z" fill="#6CADBC"/>
<path d="M614.504 325L299.5 75.5L384.5 400.5L719 583.5L1147 472L1780.5 583.5L2210.5 459.5L2225 0L1984 303.5L1639 440.5L1080.5 428.5L614.504 325Z" fill="#7CBFC8"/>
</svg>
