<svg width="525" height="530" viewBox="0 0 525 530" fill="none" xmlns="http://www.w3.org/2000/svg">
<g filter="url(#filter0_d_39_15)">
<path d="M268.383 412.231L121.482 362.001L268.383 425.5L412.757 359.474L424.761 219.839L399.172 355.367L268.383 412.231Z" fill="#601314"/>
<path d="M399.172 355.367L268.383 412.547L178.663 381.588L163.183 231.844L283.231 303.872L424.761 219.839L399.172 355.367Z" fill="#952527"/>
<path d="M178.663 381.588L121.482 362.001L100 191.091C121.061 205.623 163.815 231.212 163.815 231.212C163.815 231.212 177.294 333.147 178.663 381.588Z" fill="#9E3234"/>
<path d="M183.086 139.912L100 191.091L164.447 235.951L183.086 139.912Z" fill="#C26567"/>
<path d="M424.761 219.839L398.54 200.884L311.663 241.321L178.347 163.922L164.131 235.951L284.811 304.504L424.761 219.839Z" fill="#9E3234"/>
<path d="M178.347 163.922L308.504 242.585L398.54 200.884L311.979 216.364L180.559 151.917L178.347 163.922Z" fill="#861D1F"/>
<path d="M182.454 142.44L100 191.091L180.874 138.965L266.172 96L424.761 219.839L359.367 172.767L316.402 139.596L266.172 100.739L182.454 142.44Z" fill="#E59596"/>
<path d="M182.454 142.44L180.559 151.917L310.716 216.984L398.54 200.884L351.153 166.445L266.172 100.739L182.454 142.44Z" fill="#C27475"/>
</g>
<g filter="url(#filter1_d_39_15)">
<path d="M265.545 322.273C258.212 322.273 251.697 321.015 246 318.5C240.333 315.955 235.879 312.455 232.636 308C229.394 303.545 227.758 298.424 227.727 292.636H253.182C253.212 294.424 253.758 296.03 254.818 297.455C255.909 298.848 257.394 299.939 259.273 300.727C261.152 301.515 263.303 301.909 265.727 301.909C268.061 301.909 270.121 301.5 271.909 300.682C273.697 299.833 275.091 298.667 276.091 297.182C277.091 295.697 277.576 294 277.545 292.091C277.576 290.212 277 288.545 275.818 287.091C274.667 285.636 273.045 284.5 270.955 283.682C268.864 282.864 266.455 282.455 263.727 282.455H254.273V265H263.727C266.242 265 268.455 264.591 270.364 263.773C272.303 262.955 273.803 261.818 274.864 260.364C275.955 258.909 276.485 257.242 276.455 255.364C276.485 253.545 276.045 251.939 275.136 250.545C274.227 249.152 272.955 248.061 271.318 247.273C269.712 246.485 267.848 246.091 265.727 246.091C263.424 246.091 261.364 246.5 259.545 247.318C257.758 248.136 256.348 249.273 255.318 250.727C254.288 252.182 253.758 253.848 253.727 255.727H229.545C229.576 250.03 231.136 245 234.227 240.636C237.348 236.273 241.621 232.848 247.045 230.364C252.47 227.879 258.697 226.636 265.727 226.636C272.606 226.636 278.682 227.803 283.955 230.136C289.258 232.47 293.394 235.682 296.364 239.773C299.364 243.833 300.848 248.485 300.818 253.727C300.879 258.939 299.091 263.212 295.455 266.545C291.848 269.879 287.273 271.848 281.727 272.455V273.182C289.242 274 294.894 276.303 298.682 280.091C302.47 283.848 304.333 288.576 304.273 294.273C304.303 299.727 302.667 304.561 299.364 308.773C296.091 312.985 291.53 316.288 285.682 318.682C279.864 321.076 273.152 322.273 265.545 322.273Z" fill="white"/>
</g>
<defs>
<filter id="filter0_d_39_15" x="0" y="0" width="524.761" height="529.5" filterUnits="userSpaceOnUse" color-interpolation-filters="sRGB">
<feFlood flood-opacity="0" result="BackgroundImageFix"/>
<feColorMatrix in="SourceAlpha" type="matrix" values="0 0 0 0 0 0 0 0 0 0 0 0 0 0 0 0 0 0 127 0" result="hardAlpha"/>
<feOffset dy="4"/>
<feGaussianBlur stdDeviation="50"/>
<feComposite in2="hardAlpha" operator="out"/>
<feColorMatrix type="matrix" values="0 0 0 0 0 0 0 0 0 0 0 0 0 0 0 0 0 0 0.35 0"/>
<feBlend mode="normal" in2="BackgroundImageFix" result="effect1_dropShadow_39_15"/>
<feBlend mode="normal" in="SourceGraphic" in2="effect1_dropShadow_39_15" result="shape"/>
</filter>
<filter id="filter1_d_39_15" x="223.727" y="226.636" width="84.6367" height="103.636" filterUnits="userSpaceOnUse" color-interpolation-filters="sRGB">
<feFlood flood-opacity="0" result="BackgroundImageFix"/>
<feColorMatrix in="SourceAlpha" type="matrix" values="0 0 0 0 0 0 0 0 0 0 0 0 0 0 0 0 0 0 127 0" result="hardAlpha"/>
<feOffset dy="4"/>
<feGaussianBlur stdDeviation="2"/>
<feComposite in2="hardAlpha" operator="out"/>
<feColorMatrix type="matrix" values="0 0 0 0 0 0 0 0 0 0 0 0 0 0 0 0 0 0 0.25 0"/>
<feBlend mode="normal" in2="BackgroundImageFix" result="effect1_dropShadow_39_15"/>
<feBlend mode="normal" in="SourceGraphic" in2="effect1_dropShadow_39_15" result="shape"/>
</filter>
</defs>
</svg>
